<svg width="18" height="18" viewBox="0 0 18 18" fill="none" xmlns="http://www.w3.org/2000/svg">
<path d="M14.253 0.000488281L3.747 0.00248837C2.78698 0.00290089 1.86364 0.37129 1.167 1.03184C0.470366 1.69239 0.0534286 2.59485 0.0019989 3.55349L-0.00300217 3.75349V8.24549C-0.00294304 8.43551 0.0692425 8.61843 0.198971 8.75728C0.328699 8.89613 0.506298 8.98056 0.695879 8.99351C0.88546 9.00647 1.07289 8.94697 1.2203 8.82706C1.3677 8.70714 1.4641 8.53574 1.49 8.34749L1.497 8.24549V3.75249C1.497 2.56249 2.422 1.58749 3.593 1.50749L3.747 1.50249L14.253 1.50049C14.8164 1.50019 15.3595 1.71139 15.7747 2.0923C16.1898 2.47322 16.4469 2.9961 16.495 3.55749L16.503 3.71649L16.501 14.2525C16.5003 14.8226 16.2836 15.3712 15.8945 15.7878C15.5053 16.2044 14.9727 16.458 14.404 16.4975L14.25 16.5025H9.754C9.56398 16.5025 9.38106 16.5747 9.24221 16.7045C9.10336 16.8342 9.01892 17.0118 9.00597 17.2014C8.99302 17.3909 9.05252 17.5784 9.17243 17.7258C9.29235 17.8732 9.46375 17.9696 9.652 17.9955L9.754 18.0025H14.25C15.2099 18.0021 16.1331 17.6338 16.8297 16.9735C17.5263 16.3132 17.9433 15.4109 17.995 14.4525L18.001 14.2525L18.002 3.75249L17.998 3.54949C17.9487 2.62523 17.5592 1.75188 16.9045 1.09758C16.2499 0.443285 15.3763 0.0542912 14.452 0.0054884L14.253 0.000488281ZM11.059 6.00249H5.004C4.75048 6.00475 4.50729 6.10322 4.32362 6.27798C4.13995 6.45273 4.02951 6.69073 4.01464 6.94381C3.99978 7.1969 4.0816 7.44619 4.24355 7.64125C4.4055 7.8363 4.63549 7.96256 4.887 7.99449L5.004 8.00149H8.584L2.04 14.5435C1.86768 14.7156 1.76406 14.9446 1.74859 15.1876C1.73313 15.4306 1.80688 15.671 1.956 15.8635L2.039 15.9575C2.21119 16.1297 2.44029 16.2331 2.68332 16.2484C2.92634 16.2637 3.16659 16.1897 3.359 16.0405L3.453 15.9575L10.001 9.41249V13.0025C10.0008 13.2477 10.0908 13.4845 10.2538 13.6678C10.4167 13.8511 10.6414 13.968 10.885 13.9965L11.001 14.0025C11.2459 14.0025 11.4823 13.9125 11.6654 13.7498C11.8484 13.587 11.9653 13.3627 11.994 13.1195L12.001 13.0025V7.00249L11.998 6.91749L11.982 6.81249L11.973 6.76649L11.954 6.70049L11.918 6.60149L11.854 6.47949C11.8126 6.41186 11.7632 6.34942 11.707 6.29349L11.598 6.19849L11.476 6.12049L11.374 6.07349L11.286 6.04249L11.175 6.01549L11.059 6.00249Z" fill="black"/>
</svg>
