<svg width="1440" height="706" viewBox="0 0 1440 706" fill="none" xmlns="http://www.w3.org/2000/svg">
<path d="M1367.37 972.534C1324.59 972.534 1282.11 966.742 1243.4 954.922C1156.64 928.433 1088.86 865.294 1062.09 786.041C1037.92 714.493 1048.58 639.138 1058 572.66C1058.98 565.749 1059.95 558.856 1060.88 552.017C1069.26 490.52 1073.84 436.891 1044.95 403.454C1015.37 369.223 959.29 374.564 936.558 378.462C876.26 388.783 820.15 416.645 760.745 446.13C712.98 469.841 663.609 494.364 611.042 509.521C524.485 534.478 311.867 578.056 207.38 444.271C182.297 412.151 165.492 370.306 157.445 319.924C144.631 239.661 155.972 149.274 190.211 58.5087C210.426 4.93353 238.125 -43.7334 264.913 -90.7944C304.334 -160.051 341.57 -225.463 354.566 -302.713C358.225 -324.493 359.666 -346.4 358.838 -367.801C357.696 -396.907 352.232 -418.615 342.116 -434.206C326.503 -458.26 294.88 -472.984 257.496 -473.598C228.572 -474.085 199.234 -467.354 168.191 -460.227C159.167 -458.151 149.829 -456.022 140.508 -454.073C77.66 -440.937 13.388 -436.064 -50.5033 -439.619C-66.9273 -440.54 -94.4275 -442.055 -119.113 -450.32C-162.888 -464.918 -178.369 -493.988 -183.65 -515.787L-122.822 -533.272C-117.673 -511.979 -66.563 -509.146 -47.3245 -508.081C11.5502 -504.815 70.7394 -509.29 128.637 -521.399C137.412 -523.239 146.469 -525.314 155.227 -527.317C188.29 -534.896 222.479 -542.728 258.44 -542.132C316.685 -541.176 365.908 -516.274 393.474 -473.778C410.792 -447.09 420.014 -413.382 421.686 -370.688C422.729 -344.162 420.958 -317.113 416.438 -290.298C401.289 -200.309 359.136 -126.234 318.374 -54.6145C291.768 -7.86029 266.635 36.2955 248.406 84.6196C218.688 163.403 208.671 240.707 219.449 308.213C225.542 346.36 237.595 377.199 255.311 399.863C287.182 440.662 338.838 463.471 408.838 467.621C482.15 471.97 556.936 454.232 594.982 443.261C642.4 429.601 687.218 407.334 734.685 383.767C795.332 353.65 858.031 322.523 926.806 310.758C996.724 298.794 1054.95 315.034 1090.76 356.483C1142.92 416.825 1131 504.27 1123.12 562.122C1122.17 569.088 1121.18 576.107 1120.17 583.144C1111.51 644.262 1102.57 707.455 1121.11 762.366C1140.65 820.163 1193.99 868.65 1260.37 888.914C1343.52 914.303 1446.76 907.663 1523.37 871.988C1551.48 858.888 1577.14 838.696 1598.82 813.126C1554.15 806.756 1513.32 792.753 1477.84 771.388C1441.07 749.247 1409.33 717.885 1386.03 680.713C1361 640.798 1347.16 596.101 1345.98 551.494C1344.76 505.01 1359.49 456.325 1386.41 417.944C1415.06 377.108 1454.36 351.142 1497.11 344.79C1540.49 338.348 1584.54 351.286 1624.56 382.179C1659.58 409.21 1688.85 448.404 1706.98 492.505C1738.27 568.636 1739.26 660.431 1709.81 744.935C1804.31 732.628 1885.39 691.396 1938.65 628.401C1975.47 584.859 2000.34 530.67 2026.67 473.269C2057.23 406.684 2088.82 337.825 2141.3 284.575L2184.17 334.757C2140 379.562 2112.28 439.977 2082.93 503.946C2055.79 563.078 2027.74 624.215 1984.9 674.866C1919.99 751.611 1822.23 801 1709.63 813.938C1698.27 815.237 1687.04 816.14 1675.98 816.627C1643.58 869.661 1599.11 911.254 1548.07 935.019C1494.91 959.776 1430.82 972.516 1367.34 972.534H1367.37ZM1518.88 411.736C1514.48 411.736 1510.06 412.061 1505.6 412.711C1451.43 420.741 1407.12 483.392 1408.88 549.491C1410.54 612.431 1449.56 675.967 1508.28 711.335C1550.64 736.85 1597.67 746.288 1639.89 748.128C1643.58 740.099 1646.96 731.816 1650.02 723.335C1674.59 654.927 1674.41 580.997 1649.56 520.511C1626.5 464.391 1575.39 411.736 1518.88 411.736Z" fill="#D93749"/>
</svg>
