<svg width="190" height="32" viewBox="0 0 190 32" fill="none" xmlns="http://www.w3.org/2000/svg">
<path d="M80.3861 21.7114L82.2601 26.9581H81.4269L81.0066 25.6921H78.7673L78.3194 26.9581H77.5488L79.4378 21.7114H80.3811H80.3861ZM80.8564 25.0766L79.8832 22.4045L78.9449 25.0766H80.8539H80.8564Z" fill="white"/>
<path d="M85.2043 25.1094V24.9218C85.2043 24.1587 85.7848 23.1104 87.1409 23.1104C88.0166 23.1104 88.7497 23.6358 88.8547 24.4114H88.1267C88.0566 23.9785 87.6363 23.6758 87.1609 23.6758C86.3002 23.6758 86.0125 24.4514 86 24.9568V25.152C86 25.9351 86.4904 26.503 87.1259 26.503C87.7263 26.503 88.1542 26.1528 88.1542 25.5648H88.8823C88.8547 26.488 88.1467 27.026 87.0783 27.026C85.8048 27.026 85.2043 25.9701 85.2043 25.1094Z" fill="white"/>
<path d="M93.7543 24.9843V25.1094C93.7543 25.6624 93.5091 27.0185 91.8178 27.0185C90.6494 27.0185 89.8813 26.2203 89.8813 25.117V24.9843C89.9013 23.886 90.6719 23.1104 91.8253 23.1104C92.9787 23.1104 93.7418 23.9861 93.7568 24.9843H93.7543ZM91.8228 23.6708C90.9546 23.6708 90.6969 24.4539 90.6819 24.9868V25.1194C90.6819 25.9026 91.1372 26.4405 91.8153 26.4405C92.4933 26.4405 92.9487 25.9651 92.9487 25.1119V24.9793C92.9412 24.2588 92.5083 23.6708 91.8228 23.6708Z" fill="white"/>
<path d="M101.287 24.4885V26.958H100.512V24.6637C100.512 24.0131 100.204 23.6904 99.6434 23.6904C98.9378 23.6904 98.5801 24.1533 98.5726 24.6637V26.958H97.7969V24.6637C97.7969 24.0131 97.4742 23.6904 96.9087 23.6904C96.2582 23.6904 95.8379 24.1532 95.8379 24.7037V26.9555H95.0623V23.1775H95.8104V23.828C96.1181 23.2475 96.6911 23.1074 97.1739 23.1074C97.8445 23.1074 98.2923 23.3526 98.46 23.9181C98.7252 23.2475 99.4257 23.1074 99.8811 23.1074C100.727 23.1074 101.287 23.5553 101.287 24.486V24.4885Z" fill="white"/>
<path d="M104.903 23.1104C105.833 23.1104 106.566 23.8459 106.566 25.0544V25.1595C106.566 26.2428 105.916 27.026 104.838 27.0335C104.144 27.0335 103.677 26.5431 103.529 26.2003V28.342H102.773V23.1804H103.486V24.0261C103.647 23.5157 104.2 23.1104 104.9 23.1104H104.903ZM103.516 25.0069V25.1745C103.516 25.7349 103.867 26.4555 104.657 26.4555C105.245 26.4555 105.798 26.0352 105.798 25.1695V25.0569C105.798 24.2588 105.335 23.6933 104.672 23.6933C104.092 23.6933 103.519 24.1412 103.519 25.0094L103.516 25.0069Z" fill="white"/>
<path d="M108.616 21.6265V26.9557H107.868V21.6265H108.616Z" fill="white"/>
<path d="M109.911 25.0967C109.911 23.8382 110.73 23.1177 111.793 23.1177C112.969 23.1177 113.724 23.9433 113.624 25.2919H110.695C110.702 26.0625 111.155 26.4803 111.84 26.4803C112.351 26.4803 112.791 26.2151 112.826 25.7248H113.597C113.484 26.628 112.759 27.0258 111.813 27.0258C110.68 27.0258 109.911 26.2502 109.911 25.0942V25.0967ZM112.911 24.824C112.911 24.201 112.554 23.6556 111.793 23.6556C111.142 23.6556 110.715 24.151 110.695 24.824H112.911Z" fill="white"/>
<path d="M115.799 23.6906V25.8799C115.799 26.2301 115.967 26.3978 116.275 26.3978H116.84V26.9582H116.092C115.434 26.9582 115.064 26.658 115.064 25.9449V23.6931H114.596V23.1827H115.064V22.3721H115.799V23.1827H116.82V23.6931H115.799V23.6906Z" fill="white"/>
<path d="M117.906 25.0967C117.906 23.8382 118.724 23.1177 119.787 23.1177C120.963 23.1177 121.719 23.9433 121.619 25.2919H118.689C118.696 26.0625 119.149 26.4803 119.835 26.4803C120.345 26.4803 120.786 26.2151 120.821 25.7248H121.591C121.479 26.628 120.753 27.0258 119.807 27.0258C118.674 27.0258 117.906 26.2502 117.906 25.0942V25.0967ZM120.906 24.824C120.906 24.201 120.548 23.6556 119.787 23.6556C119.137 23.6556 118.709 24.151 118.689 24.824H120.906Z" fill="white"/>
<path d="M124.696 25.1094V24.9218C124.696 24.1587 125.277 23.1104 126.633 23.1104C127.508 23.1104 128.241 23.6358 128.347 24.4114H127.618C127.548 23.9785 127.128 23.6758 126.653 23.6758C125.792 23.6758 125.504 24.4514 125.492 24.9568V25.152C125.492 25.9351 125.982 26.503 126.618 26.503C127.218 26.503 127.646 26.1528 127.646 25.5648H128.374C128.347 26.488 127.638 27.026 126.57 27.026C125.297 27.026 124.696 25.9701 124.696 25.1094Z" fill="white"/>
<path d="M129.993 21.7393C130.251 21.7393 130.448 21.9419 130.448 22.1946C130.448 22.4473 130.253 22.65 129.993 22.65C129.733 22.65 129.545 22.4398 129.545 22.1946C129.545 21.9494 129.74 21.7393 129.993 21.7393ZM130.376 23.1804V26.9584H129.613V23.1804H130.376Z" fill="white"/>
<path d="M133.931 23.1099H134.106V23.873L133.931 23.8655C133.448 23.858 132.7 24.0957 132.7 25.0189V26.9555H131.925V23.1775H132.7V24.0306C132.743 23.828 133.028 23.1149 133.931 23.1074V23.1099Z" fill="white"/>
<path d="M135.104 25.1094V24.9218C135.104 24.1587 135.685 23.1104 137.041 23.1104C137.916 23.1104 138.649 23.6358 138.755 24.4114H138.026C137.956 23.9785 137.536 23.6758 137.061 23.6758C136.2 23.6758 135.912 24.4514 135.9 24.9568V25.152C135.9 25.9351 136.39 26.503 137.026 26.503C137.626 26.503 138.054 26.1528 138.054 25.5648H138.782C138.755 26.488 138.046 27.026 136.978 27.026C135.705 27.026 135.104 25.9701 135.104 25.1094Z" fill="white"/>
<path d="M140.764 21.6265V26.9557H140.016V21.6265H140.764Z" fill="white"/>
<path d="M142.058 25.0967C142.058 23.8382 142.876 23.1177 143.939 23.1177C145.115 23.1177 145.871 23.9433 145.771 25.2919H142.841C142.848 26.0625 143.301 26.4803 143.989 26.4803C144.5 26.4803 144.94 26.2151 144.975 25.7248H145.746C145.633 26.628 144.907 27.0258 143.962 27.0258C142.828 27.0258 142.06 26.2502 142.06 25.0942L142.058 25.0967ZM145.058 24.824C145.058 24.201 144.7 23.6556 143.939 23.6556C143.289 23.6556 142.861 24.151 142.841 24.824H145.058Z" fill="white"/>
<path d="M152.738 24.9843V25.1094C152.738 25.6624 152.493 27.0185 150.802 27.0185C149.633 27.0185 148.865 26.2203 148.865 25.117V24.9843C148.885 23.886 149.656 23.1104 150.809 23.1104C151.963 23.1104 152.726 23.9861 152.741 24.9843H152.738ZM150.807 23.6708C149.938 23.6708 149.681 24.4539 149.666 24.9868V25.1194C149.666 25.9026 150.121 26.4405 150.799 26.4405C151.477 26.4405 151.933 25.9651 151.933 25.1119V24.9793C151.925 24.2588 151.492 23.6708 150.807 23.6708Z" fill="white"/>
<path d="M153.696 23.6908V23.1729H154.227V22.9152C154.227 22.0345 154.787 21.6992 155.478 21.6992C155.715 21.6992 155.981 21.7543 156.128 21.8118L156.101 22.3572C156.016 22.3222 155.785 22.2672 155.61 22.2672C155.252 22.2672 154.975 22.4498 154.975 22.9177V23.1754H156.121V23.6933H154.975V26.9609H154.227V23.6933H153.696V23.6908Z" fill="white"/>
<path d="M160.654 27.0285C159.716 27.0285 159.088 26.6156 159.025 25.8675H159.766C159.809 26.2729 160.179 26.5331 160.669 26.5331C161.125 26.5331 161.472 26.2954 161.472 25.9601C161.472 25.6249 161.215 25.4772 160.534 25.3722C159.596 25.2395 159.101 24.9743 159.101 24.2588C159.101 23.5432 159.794 23.1104 160.612 23.1104C161.43 23.1104 162.045 23.4531 162.158 24.1812H161.41C161.34 23.8309 161.04 23.6558 160.619 23.6558C160.199 23.6558 159.864 23.866 159.864 24.2012C159.864 24.5365 160.144 24.6966 160.794 24.7967C161.738 24.9293 162.256 25.1545 162.256 25.8876C162.256 26.6206 161.57 27.0285 160.654 27.0285Z" fill="white"/>
<path d="M163.482 25.6346V23.1802H164.257V25.4895C164.257 26.105 164.572 26.4403 165.165 26.4403C165.816 26.4403 166.271 25.9724 166.271 25.4195V23.1802H167.047V26.9582H166.341V26.2176C166.076 26.8606 165.383 27.0282 164.908 27.0282C164.062 27.0282 163.482 26.5679 163.482 25.6371V25.6346Z" fill="white"/>
<path d="M168.343 25.1094V24.9218C168.343 24.1587 168.923 23.1104 170.28 23.1104C171.155 23.1104 171.888 23.6358 171.993 24.4114H171.265C171.195 23.9785 170.775 23.6758 170.3 23.6758C169.439 23.6758 169.151 24.4514 169.139 24.9568V25.152C169.139 25.9351 169.629 26.503 170.265 26.503C170.865 26.503 171.293 26.1528 171.293 25.5648H172.021C171.993 26.488 171.285 27.026 170.217 27.026C168.944 27.026 168.343 25.9701 168.343 25.1094Z" fill="white"/>
<path d="M173.002 25.1094V24.9218C173.002 24.1587 173.583 23.1104 174.939 23.1104C175.814 23.1104 176.547 23.6358 176.653 24.4114H175.924C175.854 23.9785 175.434 23.6758 174.959 23.6758C174.098 23.6758 173.81 24.4514 173.798 24.9568V25.152C173.798 25.9351 174.288 26.503 174.924 26.503C175.524 26.503 175.952 26.1528 175.952 25.5648H176.68C176.653 26.488 175.947 27.026 174.876 27.026C173.603 27.026 173.002 25.9701 173.002 25.1094Z" fill="white"/>
<path d="M177.673 25.0967C177.673 23.8382 178.491 23.1177 179.555 23.1177C180.731 23.1177 181.486 23.9433 181.386 25.2919H178.456C178.464 26.0625 178.919 26.4803 179.605 26.4803C180.115 26.4803 180.555 26.2151 180.59 25.7248H181.361C181.249 26.628 180.52 27.0258 179.577 27.0258C178.444 27.0258 177.676 26.2502 177.676 25.0942L177.673 25.0967ZM180.676 24.824C180.676 24.201 180.318 23.6556 179.557 23.6556C178.907 23.6556 178.479 24.151 178.459 24.824H180.676Z" fill="white"/>
<path d="M184.053 27.0285C183.115 27.0285 182.487 26.6156 182.424 25.8675H183.165C183.207 26.2729 183.578 26.5331 184.068 26.5331C184.523 26.5331 184.874 26.2954 184.874 25.9601C184.874 25.6249 184.613 25.4772 183.935 25.3722C182.997 25.2395 182.502 24.9743 182.502 24.2588C182.502 23.5432 183.195 23.1104 184.013 23.1104C184.831 23.1104 185.447 23.4531 185.559 24.1812H184.811C184.741 23.8309 184.441 23.6558 184.02 23.6558C183.6 23.6558 183.265 23.866 183.265 24.2012C183.265 24.5365 183.545 24.6966 184.196 24.7967C185.139 24.9293 185.657 25.1545 185.657 25.8876C185.657 26.6206 184.971 27.0285 184.056 27.0285H184.053Z" fill="white"/>
<path d="M188.299 27.0285C187.361 27.0285 186.733 26.6156 186.67 25.8675H187.411C187.454 26.2729 187.824 26.5331 188.314 26.5331C188.77 26.5331 189.117 26.2954 189.117 25.9601C189.117 25.6249 188.86 25.4772 188.179 25.3722C187.241 25.2395 186.746 24.9743 186.746 24.2588C186.746 23.5432 187.439 23.1104 188.257 23.1104C189.075 23.1104 189.69 23.4531 189.803 24.1812H189.055C188.985 23.8309 188.685 23.6558 188.264 23.6558C187.844 23.6558 187.509 23.866 187.509 24.2012C187.509 24.5365 187.789 24.6966 188.439 24.7967C189.383 24.9293 189.901 25.1545 189.901 25.8876C189.901 26.6206 189.215 27.0285 188.299 27.0285Z" fill="white"/>
<path d="M82.6426 16.2494C82.6426 17.593 81.6043 18.5713 80.1356 18.5713C78.6669 18.5713 77.7212 17.623 77.6911 16.2494H79.4025C79.4325 16.7073 79.7078 17.0451 80.1656 17.0451C80.6235 17.0451 80.9287 16.7098 80.9287 16.2194C80.9287 15.729 80.5935 15.4238 80.073 15.4238H79.0022V15.056L80.073 13.2846H77.8413V11.7559H82.4249V12.0611L81.0813 14.2003C82.0596 14.4455 82.6701 15.2086 82.6401 16.2469L82.6426 16.2494Z" fill="white"/>
<path d="M88.6948 16.1268C88.6948 17.593 87.624 18.6013 86.0677 18.6013C84.5115 18.6013 83.4081 17.593 83.4081 16.1268C83.4081 15.4538 83.6233 14.7833 84.1712 13.835L85.3947 11.7559H87.2887C86.8609 12.4889 86.403 13.222 85.9752 13.9551C86.1278 13.9251 86.2804 13.9251 86.403 13.9251C87.7466 13.9251 88.6648 14.8108 88.6948 16.1243V16.1268ZM86.9509 16.1268C86.9509 15.5764 86.5531 15.1786 86.0352 15.1786C85.4848 15.1786 85.087 15.5764 85.087 16.1268C85.087 16.6773 85.4848 17.0751 86.0352 17.0751C86.5857 17.0451 86.9509 16.6773 86.9509 16.1268Z" fill="white"/>
<path d="M89.2756 15.1183C89.2756 12.9791 90.4065 11.603 92.2104 11.603C94.0144 11.603 95.1127 12.9791 95.1127 15.1183C95.1127 17.2575 93.9818 18.6336 92.2104 18.6336C90.439 18.6336 89.2756 17.2275 89.2756 15.1183ZM93.2788 15.1183C93.2788 13.8948 92.881 13.1918 92.1779 13.1918C91.4748 13.1918 91.077 13.8648 91.077 15.1183C91.077 16.3718 91.4748 17.0449 92.1779 17.0449C92.881 17.0148 93.2788 16.3418 93.2788 15.1183Z" fill="white"/>
<path d="M103.394 14.7208C104.067 15.026 104.465 15.669 104.465 16.4321C104.465 17.563 103.487 18.4187 102.203 18.4187H98.9631V11.3906H102.141C103.394 11.3906 104.28 12.1537 104.28 13.1946C104.28 13.8376 103.945 14.418 103.394 14.7233V14.7208ZM102.568 16.1869C102.568 15.8191 102.293 15.5439 101.865 15.5439H100.827V16.8274H101.865C102.293 16.8274 102.568 16.5823 102.568 16.1844V16.1869ZM101.805 12.9168H100.827V14.1403H101.805C102.203 14.1403 102.448 13.8951 102.448 13.5298C102.448 13.1645 102.203 12.9193 101.805 12.9193V12.9168Z" fill="white"/>
<path d="M105.321 16.0967V13.0093H107.185V16.0042C107.185 16.5846 107.49 16.9199 107.98 16.9199C108.471 16.9199 108.776 16.5846 108.776 16.0042V13.0093H110.64V16.0967C110.64 17.6254 109.569 18.6037 107.98 18.6037C106.391 18.6037 105.321 17.6254 105.321 16.0967Z" fill="white"/>
<path d="M113.847 18.6012C112.381 18.6012 111.463 17.8056 111.463 16.6447H113.267C113.267 17.0425 113.542 17.2252 113.91 17.2252C114.185 17.2252 114.43 17.0725 114.43 16.7973C114.43 16.4921 114.033 16.3995 113.515 16.3094C112.659 16.1868 111.558 15.9116 111.558 14.5981C111.558 13.4972 112.474 12.8267 113.88 12.8267C115.286 12.8267 116.142 13.5597 116.172 14.6606H114.43C114.43 14.3254 114.185 14.1402 113.85 14.1402C113.545 14.1402 113.362 14.2928 113.362 14.538C113.362 14.8433 113.79 14.9058 114.278 14.9959C115.133 15.1485 116.264 15.3311 116.264 16.7072C116.264 17.8682 115.286 18.6012 113.85 18.6012H113.847Z" fill="white"/>
<path d="M117.118 13.0094H118.982V18.4186H117.118V13.0094ZM117.148 10.7476H118.982V12.3363H117.148V10.7476Z" fill="white"/>
<path d="M125.522 15.1183V18.4184H123.658V15.361C123.658 14.718 123.412 14.4127 122.955 14.4127C122.374 14.4127 122.039 14.8106 122.039 15.5136V18.4159H120.175V13.0066H121.488L121.734 13.5571C122.131 13.0992 122.742 12.854 123.445 12.854C124.698 12.854 125.524 13.7397 125.524 15.1158L125.522 15.1183Z" fill="white"/>
<path d="M132.215 15.6687C132.215 15.8213 132.185 16.004 132.185 16.1566H128.151C128.274 16.7671 128.672 17.1049 129.252 17.1049C129.68 17.1049 130.048 16.9222 130.231 16.5844H132.094C131.727 17.8079 130.628 18.6011 129.252 18.6011C127.571 18.6011 126.317 17.3776 126.317 15.7288C126.317 14.08 127.571 12.8565 129.252 12.8565C130.964 12.8265 132.187 14.08 132.217 15.6687H132.215ZM128.179 15.1183H130.378C130.225 14.5678 129.828 14.2926 129.277 14.2926C128.727 14.2926 128.329 14.5979 128.176 15.1183H128.179Z" fill="white"/>
<path d="M135.15 18.6012C133.684 18.6012 132.765 17.8056 132.765 16.6447H134.569C134.569 17.0425 134.844 17.2252 135.212 17.2252C135.487 17.2252 135.733 17.0725 135.733 16.7973C135.733 16.4921 135.335 16.3995 134.817 16.3094C133.961 16.1868 132.86 15.9116 132.86 14.5981C132.86 13.4972 133.776 12.8267 135.182 12.8267C136.588 12.8267 137.444 13.5597 137.474 14.6606H135.733C135.733 14.3254 135.487 14.1402 135.152 14.1402C134.847 14.1402 134.664 14.2928 134.664 14.538C134.664 14.8433 135.062 14.9058 135.58 14.9959C136.436 15.1485 137.567 15.3311 137.567 16.7072C137.537 17.8682 136.588 18.6012 135.152 18.6012H135.15Z" fill="white"/>
<path d="M140.496 18.6012C139.03 18.6012 138.112 17.8056 138.112 16.6447H139.916C139.916 17.0425 140.191 17.2252 140.559 17.2252C140.834 17.2252 141.079 17.0725 141.079 16.7973C141.079 16.4921 140.681 16.3995 140.163 16.3094C139.308 16.1868 138.207 15.9116 138.207 14.5981C138.207 13.4972 139.122 12.8267 140.529 12.8267C141.935 12.8267 142.79 13.5597 142.82 14.6606H141.079C141.079 14.3254 140.834 14.1402 140.499 14.1402C140.193 14.1402 140.011 14.2928 140.011 14.538C140.011 14.8433 140.438 14.9058 140.926 14.9959C141.782 15.1485 142.913 15.3311 142.913 16.7072C142.883 17.8682 141.935 18.6012 140.499 18.6012H140.496Z" fill="white"/>
<path d="M151.62 13.9552C151.62 15.4213 150.519 16.4922 149.023 16.4922H147.984V18.4187H146.058V11.3906H149.053C150.519 11.4206 151.62 12.4915 151.62 13.9577V13.9552ZM149.633 13.9552C149.633 13.4673 149.298 13.0995 148.777 13.0995H147.952V14.8108H148.777C149.298 14.8108 149.633 14.443 149.633 13.9552Z" fill="white"/>
<path d="M158.13 13.0096V18.4189H156.694L156.541 18.0511C156.113 18.4189 155.533 18.6315 154.922 18.6315C153.271 18.6315 152.08 17.4406 152.08 15.7292C152.08 14.0179 153.271 12.8569 154.922 12.8569C155.565 12.8569 156.113 13.0721 156.574 13.4374L156.756 13.0096H158.132H158.13ZM156.359 15.7292C156.359 15.0262 155.838 14.5057 155.135 14.5057C154.432 14.5057 153.912 15.0262 153.912 15.7292C153.912 16.4323 154.432 16.9527 155.135 16.9527C155.838 16.9527 156.359 16.4323 156.359 15.7292Z" fill="white"/>
<path d="M162.836 12.9796V14.6909H162.103C161.43 14.6909 161.155 14.9661 161.155 15.6692V18.4189H159.291V13.0096H160.544L160.85 13.6201C161.217 13.1922 161.705 12.9771 162.348 12.9771H162.836V12.9796Z" fill="white"/>
<path d="M167.3 16.7972V18.4485H166.017C164.826 18.4485 164.09 17.7154 164.09 16.522V14.4753H163.082V14.0475L165.496 11.4805H165.864V13.0692H167.208V14.5054H165.894V16.2167C165.894 16.6145 166.139 16.8272 166.505 16.8272L167.3 16.7972Z" fill="white"/>
<path d="M173.502 15.1183V18.4184H171.638V15.361C171.638 14.718 171.393 14.4127 170.935 14.4127C170.355 14.4127 170.019 14.8106 170.019 15.5136V18.4159H168.155V13.0066H169.469L169.714 13.5571C170.112 13.0992 170.723 12.854 171.426 12.854C172.679 12.854 173.505 13.7397 173.505 15.1158L173.502 15.1183Z" fill="white"/>
<path d="M180.197 15.6692C180.197 15.8218 180.197 16.0044 180.167 16.1571H176.134C176.257 16.7675 176.655 17.1053 177.235 17.1053C177.663 17.1053 178.031 16.9227 178.213 16.5849H180.077C179.709 17.8084 178.611 18.6015 177.235 18.6015C175.554 18.6015 174.3 17.378 174.3 15.7292C174.3 14.0804 175.554 12.8569 177.235 12.8569C178.916 12.8569 180.2 14.0804 180.2 15.6692H180.197ZM176.192 15.1187H178.391C178.238 14.5683 177.841 14.2931 177.26 14.2931C176.68 14.2931 176.344 14.5983 176.189 15.1187H176.192Z" fill="white"/>
<path d="M184.566 12.9796V14.6909H183.863C183.19 14.6909 182.915 14.9661 182.915 15.6692V18.4189H181.051V13.0096H182.304L182.579 13.6201C182.947 13.1922 183.435 12.9771 184.078 12.9771H184.566V12.9796Z" fill="white"/>
<path d="M187.348 18.6012C185.882 18.6012 184.964 17.8056 184.964 16.6447H186.768C186.768 17.0425 187.043 17.2252 187.411 17.2252C187.686 17.2252 187.931 17.0725 187.931 16.7973C187.931 16.4921 187.533 16.3995 187.016 16.3094C186.16 16.1868 185.059 15.9116 185.059 14.5981C185.059 13.4972 185.975 12.8267 187.381 12.8267C188.787 12.8267 189.643 13.5597 189.673 14.6606H187.931C187.931 14.3254 187.686 14.1402 187.351 14.1402C187.046 14.1402 186.863 14.2928 186.863 14.538C186.863 14.8433 187.291 14.9058 187.779 14.9959C188.634 15.1485 189.765 15.3311 189.765 16.7072C189.735 17.8682 188.787 18.6012 187.351 18.6012H187.348Z" fill="white"/>
<path d="M95.5904 10.3447C95.125 10.3447 94.7472 10.7225 94.7472 11.1879C94.7472 11.6533 95.125 12.0311 95.5904 12.0311C96.0558 12.0311 96.4336 11.6533 96.4336 11.1879C96.4336 10.7225 96.0558 10.3447 95.5904 10.3447ZM95.5904 11.7083C95.3027 11.7083 95.07 11.4756 95.07 11.1879C95.07 10.9002 95.3027 10.6675 95.5904 10.6675C95.8781 10.6675 96.1108 10.9002 96.1108 11.1879C96.1108 11.4756 95.8781 11.7083 95.5904 11.7083Z" fill="white"/>
<path d="M64.2033 21.0985C63.9231 22.0693 63.3852 22.9875 62.6196 23.7556C60.1676 26.2076 56.2095 26.2076 53.7575 23.7556C51.3056 21.3037 51.3056 17.3455 53.7575 14.8936C54.5232 14.128 55.4439 13.59 56.4147 13.3098V7.89551C54.0653 8.25329 51.791 9.35167 49.9795 11.1656C45.4585 15.6867 45.4585 23.0175 49.9795 27.5361C54.5006 32.0572 61.8315 32.0572 66.35 27.5361C68.164 25.7222 69.2624 23.4504 69.6201 21.101H64.2058L64.2033 21.0985Z" fill="#F5F3BB"/>
<path d="M41.7854 11.1354C37.2643 6.61436 29.9334 6.61436 25.3873 11.1354C20.8662 15.6565 20.8662 22.9874 25.3873 27.5335C29.9084 32.0546 37.2392 32.0546 41.7854 27.5335C46.3064 22.9874 46.3064 15.6565 41.7854 11.1354ZM29.1428 23.753C26.6909 21.301 26.6909 17.3429 29.1428 14.8909C31.5948 12.439 35.5529 12.439 38.0048 14.8909C40.4568 17.3429 40.4568 21.301 38.0048 23.753C35.5529 26.1799 31.5948 26.1799 29.1428 23.753Z" fill="#F5F3BB"/>
<path d="M41.2496 4.77306L37.8469 0.674805L26.2902 10.335L29.6954 14.4082L41.2496 4.77556V4.77306Z" fill="#F5F3BB"/>
<path d="M69.8052 7.9082V19.5024H64.4685V13.2199H58.211V7.9082H69.8052Z" fill="#F5F3BB"/>
<path d="M18.7368 2.55865V7.93042L14.2658 11.6709L8.32354 16.5523C8.04833 16.6874 7.78562 16.8475 7.54543 17.0302L3.90003 13.3848L4.29784 13.052L10.4652 7.89289H2.92926V2.55615H18.7393L18.7368 2.55865Z" fill="#F5F3BB"/>
<path d="M20.5809 19.5024C20.5384 19.2072 20.4834 18.9194 20.4158 18.6342C20.1881 17.6785 19.8228 16.7752 19.3425 15.9471C18.7495 14.9238 17.9789 14.013 17.0706 13.26C16.2675 12.5894 15.3543 12.0415 14.3635 11.6462C14.361 11.6462 14.3585 11.6437 14.3535 11.6412C14.2659 11.6061 14.1783 11.5711 14.0883 11.5386C13.2701 11.2358 12.4044 11.0382 11.5037 10.9556C11.4412 10.9481 11.3786 10.9431 11.3161 10.9406C11.236 10.9331 11.1534 10.9281 11.0759 10.9256C10.9083 10.9156 10.7406 10.9131 10.5705 10.9131H10.558C10.4054 10.9131 10.2552 10.9181 10.1026 10.9231C10.0451 10.9256 9.99002 10.9306 9.93248 10.9331C9.92247 10.9331 9.91246 10.9331 9.90245 10.9356C9.8399 10.9406 9.77485 10.9456 9.71231 10.9506C7.75825 11.1183 5.95182 11.8513 4.46564 12.9672C4.45813 12.9722 4.45312 12.9772 4.44812 12.9822C4.4231 12.9997 4.39558 13.0198 4.37056 13.0398C4.36305 13.0448 4.35555 13.0498 4.35054 13.0548C4.35054 13.0573 4.34554 13.0598 4.34304 13.0598L4.10535 13.26L3.97274 13.37L3.96524 13.3775L3.95273 13.3876L3.95773 13.3926L7.59812 17.0329C7.83831 16.8503 8.10102 16.6902 8.37624 16.5551C8.47382 16.5075 8.5714 16.4625 8.67398 16.4225C9.25944 16.1823 9.90245 16.0472 10.5705 16.0472C12.7422 16.0472 14.5787 17.4508 15.2367 19.3898C15.2492 19.4274 15.2617 19.4649 15.2742 19.5024C15.2792 19.5124 15.2817 19.5224 15.2842 19.5324C15.2867 19.5424 15.2892 19.5499 15.2917 19.56C15.3218 19.6575 15.3493 19.7576 15.3743 19.8602C15.3943 19.9503 15.4118 20.0403 15.4293 20.1304C15.4368 20.1629 15.4419 20.1955 15.4444 20.228C15.4819 20.4732 15.5019 20.7209 15.5019 20.9761C15.5019 21.0436 15.5019 21.1112 15.4969 21.1787C15.4894 21.3639 15.4719 21.5465 15.4444 21.7242C15.4318 21.7967 15.4193 21.8718 15.4068 21.9443C14.9515 24.1936 12.9474 25.905 10.573 25.905C8.3262 25.905 6.4347 24.3988 5.82171 22.3547H5.81421C5.70662 21.9794 5.63907 21.5841 5.62405 21.1787H0.499985C0.512495 21.8368 0.737673 23.0828 0.737673 23.0828C1.09546 24.7791 1.88358 26.3178 2.98446 27.5788C4.77838 29.6405 7.40297 30.9615 10.3403 31.0341C10.4129 31.0366 10.4854 31.0391 10.5605 31.0391C10.648 31.0391 10.7331 31.0391 10.8207 31.0341C15.4894 30.934 19.3825 27.6539 20.4183 23.2754C20.5284 22.8075 20.606 22.3272 20.6485 21.8393C20.6685 21.6191 20.6785 21.4014 20.6835 21.1787C20.686 21.1037 20.6885 21.0261 20.6885 20.9511C20.6885 20.4582 20.6535 19.9753 20.5834 19.5049L20.5809 19.5024Z" fill="#F5F3BB"/>
</svg>
